<svg width="22" height="21" viewBox="0 0 22 21" fill="none" xmlns="http://www.w3.org/2000/svg">
<path fill-rule="evenodd" clip-rule="evenodd" d="M11 0.894714C5.41699 0.894714 0.894745 5.42316 0.894745 11C0.894745 15.4664 3.79171 19.2504 7.80528 20.5904C8.30775 20.6834 8.49385 20.3732 8.49385 20.1003C8.49385 19.8584 8.48765 19.2256 8.48145 18.382C5.67133 18.9899 5.0758 17.0296 5.0758 17.0296C4.61676 15.8634 3.953 15.5532 3.953 15.5532C3.0349 14.9267 4.02123 14.9391 4.02123 14.9391C5.03238 15.0135 5.57207 15.9813 5.57207 15.9813C6.47156 17.5259 7.93555 17.0793 8.51246 16.8187C8.60551 16.1674 8.86605 15.7207 9.15141 15.4664C6.90579 15.2121 4.54852 14.3436 4.54852 10.4727C4.54852 9.36849 4.93933 8.46901 5.59068 7.76183C5.48523 7.50749 5.13784 6.47773 5.68994 5.08818C5.68994 5.08818 6.5398 4.81523 8.46904 6.12414C9.27547 5.90082 10.1377 5.78916 11 5.78296C11.8561 5.78916 12.7245 5.90082 13.531 6.12414C15.4602 4.81523 16.3101 5.08818 16.3101 5.08818C16.8622 6.47773 16.5148 7.50749 16.4093 7.76183C17.0545 8.46901 17.4453 9.36849 17.4453 10.4727C17.4453 14.356 15.0818 15.2059 12.83 15.4602C13.1898 15.7704 13.5186 16.3907 13.5186 17.3336C13.5186 18.6859 13.5062 19.7715 13.5062 20.1065C13.5062 20.3794 13.6861 20.6896 14.2009 20.5904C18.2145 19.2504 21.1053 15.4664 21.1053 11.0062C21.1053 5.42316 16.583 0.894714 11 0.894714Z" fill="#191717"/>
</svg>
